<mxfile host="app.diagrams.net" modified="2023-10-13T20:04:38.424Z" agent="Mozilla/5.0 (Macintosh; Intel Mac OS X 10.15; rv:109.0) Gecko/20100101 Firefox/118.0" etag="ES8kvg9_UVFllKpSDiQE" version="22.0.4" type="github">
  <diagram name="Page-1" id="s_K_Jd9jlDhBgt5PAwLs">
    <mxGraphModel dx="1364" dy="1512" grid="1" gridSize="10" guides="1" tooltips="1" connect="1" arrows="1" fold="1" page="1" pageScale="1" pageWidth="827" pageHeight="1169" math="0" shadow="0">
      <root>
        <mxCell id="0" />
        <mxCell id="1" parent="0" />
        <mxCell id="0n1geKt-CH7ygtrhN82R-22" value="" style="rounded=1;whiteSpace=wrap;html=1;fillColor=none;strokeWidth=1;" parent="1" vertex="1">
          <mxGeometry x="-130" y="280" width="480" height="100" as="geometry" />
        </mxCell>
        <mxCell id="0n1geKt-CH7ygtrhN82R-4" value="&lt;b&gt;&lt;font style=&quot;font-size: 18px;&quot;&gt;E&lt;sub&gt;5&lt;/sub&gt;&lt;/font&gt;&lt;/b&gt;" style="rhombus;whiteSpace=wrap;html=1;flipH=1;flipV=0;fillColor=#dae8fc;strokeColor=#6c8ebf;" parent="1" vertex="1">
          <mxGeometry x="260" y="290" width="80" height="80" as="geometry" />
        </mxCell>
        <mxCell id="0n1geKt-CH7ygtrhN82R-7" value="&lt;b&gt;&lt;font style=&quot;font-size: 18px;&quot;&gt;E&lt;sub&gt;3&lt;/sub&gt;&lt;/font&gt;&lt;/b&gt;" style="rhombus;whiteSpace=wrap;html=1;flipH=1;flipV=0;fillColor=#dae8fc;strokeColor=#6c8ebf;" parent="1" vertex="1">
          <mxGeometry x="70" y="290" width="80" height="80" as="geometry" />
        </mxCell>
        <mxCell id="0n1geKt-CH7ygtrhN82R-8" value="&lt;b&gt;&lt;font style=&quot;font-size: 18px;&quot;&gt;E&lt;sub&gt;1&lt;/sub&gt;&lt;/font&gt;&lt;/b&gt;" style="rhombus;whiteSpace=wrap;html=1;flipH=1;flipV=0;fillColor=#dae8fc;strokeColor=#6c8ebf;" parent="1" vertex="1">
          <mxGeometry x="-120" y="292" width="80" height="80" as="geometry" />
        </mxCell>
        <mxCell id="0n1geKt-CH7ygtrhN82R-9" value="&lt;b&gt;&lt;font style=&quot;font-size: 18px;&quot;&gt;E&lt;sub&gt;2&lt;/sub&gt;&lt;/font&gt;&lt;/b&gt;" style="rhombus;whiteSpace=wrap;html=1;flipH=1;flipV=0;fillColor=#dae8fc;strokeColor=#6c8ebf;" parent="1" vertex="1">
          <mxGeometry x="-25" y="292" width="80" height="80" as="geometry" />
        </mxCell>
        <mxCell id="0n1geKt-CH7ygtrhN82R-10" value="&lt;b&gt;&lt;font style=&quot;font-size: 18px;&quot;&gt;E&lt;sub&gt;4&lt;/sub&gt;&lt;/font&gt;&lt;/b&gt;" style="rhombus;whiteSpace=wrap;html=1;flipH=1;flipV=0;fillColor=#dae8fc;strokeColor=#6c8ebf;" parent="1" vertex="1">
          <mxGeometry x="165" y="292" width="80" height="80" as="geometry" />
        </mxCell>
        <mxCell id="0n1geKt-CH7ygtrhN82R-11" value="&lt;h1&gt;Illustration du mécanisme de self-attention&lt;br&gt;&lt;/h1&gt;&lt;p&gt;&lt;br&gt;&lt;/p&gt;" style="text;html=1;strokeColor=none;fillColor=none;spacing=5;spacingTop=-20;whiteSpace=wrap;overflow=hidden;rounded=0;" parent="1" vertex="1">
          <mxGeometry x="-95" y="-30" width="500" height="40" as="geometry" />
        </mxCell>
        <mxCell id="0n1geKt-CH7ygtrhN82R-18" value="&lt;h1 style=&quot;font-size: 16px;&quot;&gt;&lt;font style=&quot;font-size: 16px;&quot; color=&quot;#006eaf&quot;&gt;Visite de référence&lt;/font&gt;&lt;br&gt;&lt;/h1&gt;&lt;p&gt;&lt;br&gt;&lt;/p&gt;" style="text;html=1;strokeColor=none;fillColor=none;spacing=5;spacingTop=-20;whiteSpace=wrap;overflow=hidden;rounded=0;" parent="1" vertex="1">
          <mxGeometry x="120" y="430" width="170" height="30" as="geometry" />
        </mxCell>
        <mxCell id="0n1geKt-CH7ygtrhN82R-24" value="" style="shape=flexArrow;endArrow=classic;html=1;rounded=0;" parent="1" edge="1">
          <mxGeometry width="50" height="50" relative="1" as="geometry">
            <mxPoint x="205" y="422" as="sourcePoint" />
            <mxPoint x="204.72" y="384" as="targetPoint" />
          </mxGeometry>
        </mxCell>
        <mxCell id="0n1geKt-CH7ygtrhN82R-25" value="&lt;h1 style=&quot;font-size: 13px;&quot;&gt;&lt;font style=&quot;font-size: 13px;&quot;&gt;L&#39;ensemble des informations entre V&lt;sub style=&quot;&quot;&gt;1 &lt;/sub&gt;et V&lt;sub style=&quot;&quot;&gt;4 &lt;/sub&gt;seront fournies au modèle pour la prédiction &lt;br&gt;&lt;/font&gt;&lt;/h1&gt;&lt;h1 style=&quot;font-size: 13px;&quot;&gt;&lt;font style=&quot;font-size: 13px;&quot;&gt;&lt;sub&gt; &lt;/sub&gt;&lt;/font&gt;&lt;/h1&gt;" style="text;html=1;strokeColor=none;fillColor=none;spacing=5;spacingTop=-20;whiteSpace=wrap;overflow=hidden;rounded=0;" parent="1" vertex="1">
          <mxGeometry x="-130" y="390" width="170" height="70" as="geometry" />
        </mxCell>
        <mxCell id="DUlObbKQB28TVA2kBkXY-1" value="Value&lt;sub&gt;1&lt;/sub&gt;" style="rounded=0;whiteSpace=wrap;html=1;" vertex="1" parent="1">
          <mxGeometry x="-110" y="230" width="60" height="20" as="geometry" />
        </mxCell>
        <mxCell id="DUlObbKQB28TVA2kBkXY-4" value="Query&lt;sub&gt;1&lt;/sub&gt;" style="rounded=0;whiteSpace=wrap;html=1;" vertex="1" parent="1">
          <mxGeometry x="-110" y="170" width="60" height="20" as="geometry" />
        </mxCell>
        <mxCell id="DUlObbKQB28TVA2kBkXY-5" value="Key&lt;sub&gt;1&lt;/sub&gt;" style="rounded=0;whiteSpace=wrap;html=1;" vertex="1" parent="1">
          <mxGeometry x="-110" y="200" width="60" height="20" as="geometry" />
        </mxCell>
        <mxCell id="DUlObbKQB28TVA2kBkXY-24" value="Value&lt;sub&gt;5&lt;/sub&gt;" style="rounded=0;whiteSpace=wrap;html=1;" vertex="1" parent="1">
          <mxGeometry x="270" y="230" width="60" height="20" as="geometry" />
        </mxCell>
        <mxCell id="DUlObbKQB28TVA2kBkXY-25" value="Query&lt;sub&gt;5&lt;/sub&gt;" style="rounded=0;whiteSpace=wrap;html=1;" vertex="1" parent="1">
          <mxGeometry x="270" y="170" width="60" height="20" as="geometry" />
        </mxCell>
        <mxCell id="DUlObbKQB28TVA2kBkXY-26" value="Key&lt;sub&gt;5&lt;/sub&gt;" style="rounded=0;whiteSpace=wrap;html=1;" vertex="1" parent="1">
          <mxGeometry x="270" y="200" width="60" height="20" as="geometry" />
        </mxCell>
        <mxCell id="DUlObbKQB28TVA2kBkXY-27" value="Value&lt;sub&gt;4&lt;/sub&gt;" style="rounded=0;whiteSpace=wrap;html=1;" vertex="1" parent="1">
          <mxGeometry x="175" y="230" width="60" height="20" as="geometry" />
        </mxCell>
        <mxCell id="DUlObbKQB28TVA2kBkXY-28" value="Query&lt;sub&gt;4&lt;/sub&gt;" style="rounded=0;whiteSpace=wrap;html=1;" vertex="1" parent="1">
          <mxGeometry x="175" y="170" width="60" height="20" as="geometry" />
        </mxCell>
        <mxCell id="DUlObbKQB28TVA2kBkXY-29" value="Key&lt;sub&gt;4&lt;/sub&gt;" style="rounded=0;whiteSpace=wrap;html=1;" vertex="1" parent="1">
          <mxGeometry x="175" y="200" width="60" height="20" as="geometry" />
        </mxCell>
        <mxCell id="DUlObbKQB28TVA2kBkXY-30" value="Value&lt;sub&gt;3&lt;/sub&gt;" style="rounded=0;whiteSpace=wrap;html=1;" vertex="1" parent="1">
          <mxGeometry x="80" y="230" width="60" height="20" as="geometry" />
        </mxCell>
        <mxCell id="DUlObbKQB28TVA2kBkXY-31" value="Query&lt;sub&gt;3&lt;/sub&gt;" style="rounded=0;whiteSpace=wrap;html=1;" vertex="1" parent="1">
          <mxGeometry x="80" y="170" width="60" height="20" as="geometry" />
        </mxCell>
        <mxCell id="DUlObbKQB28TVA2kBkXY-32" value="Key&lt;sub&gt;3&lt;/sub&gt;" style="rounded=0;whiteSpace=wrap;html=1;" vertex="1" parent="1">
          <mxGeometry x="80" y="200" width="60" height="20" as="geometry" />
        </mxCell>
        <mxCell id="DUlObbKQB28TVA2kBkXY-33" value="Value&lt;sub&gt;2&lt;/sub&gt;" style="rounded=0;whiteSpace=wrap;html=1;" vertex="1" parent="1">
          <mxGeometry x="-15" y="230" width="60" height="20" as="geometry" />
        </mxCell>
        <mxCell id="DUlObbKQB28TVA2kBkXY-34" value="Query&lt;sub&gt;2&lt;/sub&gt;" style="rounded=0;whiteSpace=wrap;html=1;" vertex="1" parent="1">
          <mxGeometry x="-15" y="170" width="60" height="20" as="geometry" />
        </mxCell>
        <mxCell id="DUlObbKQB28TVA2kBkXY-35" value="Key&lt;sub&gt;2&lt;/sub&gt;" style="rounded=0;whiteSpace=wrap;html=1;" vertex="1" parent="1">
          <mxGeometry x="-15" y="200" width="60" height="20" as="geometry" />
        </mxCell>
        <mxCell id="DUlObbKQB28TVA2kBkXY-40" value="" style="endArrow=none;html=1;rounded=0;strokeColor=#b85450;entryX=0;entryY=0.5;entryDx=0;entryDy=0;fillColor=#f8cecc;" edge="1" parent="1" target="DUlObbKQB28TVA2kBkXY-35">
          <mxGeometry width="50" height="50" relative="1" as="geometry">
            <mxPoint x="-50" y="180" as="sourcePoint" />
            <mxPoint x="-20" y="210" as="targetPoint" />
          </mxGeometry>
        </mxCell>
        <mxCell id="DUlObbKQB28TVA2kBkXY-41" value="" style="endArrow=none;html=1;strokeColor=#b85450;fillColor=#f8cecc;curved=1;entryX=0;entryY=0.5;entryDx=0;entryDy=0;" edge="1" parent="1" target="DUlObbKQB28TVA2kBkXY-29">
          <mxGeometry width="50" height="50" relative="1" as="geometry">
            <mxPoint x="-50" y="180" as="sourcePoint" />
            <mxPoint x="175" y="200" as="targetPoint" />
            <Array as="points">
              <mxPoint x="120" y="90" />
            </Array>
          </mxGeometry>
        </mxCell>
        <mxCell id="DUlObbKQB28TVA2kBkXY-42" value="" style="endArrow=none;html=1;strokeColor=#b85450;exitX=1;exitY=0.5;exitDx=0;exitDy=0;fillColor=#f8cecc;entryX=0;entryY=0.5;entryDx=0;entryDy=0;curved=1;" edge="1" parent="1" source="DUlObbKQB28TVA2kBkXY-4" target="DUlObbKQB28TVA2kBkXY-32">
          <mxGeometry width="50" height="50" relative="1" as="geometry">
            <mxPoint x="-40" y="140" as="sourcePoint" />
            <mxPoint x="50" y="130" as="targetPoint" />
            <Array as="points">
              <mxPoint x="30" y="160" />
              <mxPoint x="60" y="160" />
            </Array>
          </mxGeometry>
        </mxCell>
        <mxCell id="DUlObbKQB28TVA2kBkXY-43" value="" style="endArrow=none;html=1;strokeColor=#b85450;fillColor=#f8cecc;curved=1;exitX=0;exitY=0.5;exitDx=0;exitDy=0;" edge="1" parent="1" source="DUlObbKQB28TVA2kBkXY-26">
          <mxGeometry width="50" height="50" relative="1" as="geometry">
            <mxPoint x="220" y="120" as="sourcePoint" />
            <mxPoint x="-50" y="180" as="targetPoint" />
            <Array as="points">
              <mxPoint x="240" y="160" />
              <mxPoint x="190" y="120" />
              <mxPoint x="80" y="120" />
              <mxPoint x="10" y="130" />
            </Array>
          </mxGeometry>
        </mxCell>
      </root>
    </mxGraphModel>
  </diagram>
</mxfile>
